<svg xmlns="http://www.w3.org/2000/svg" xmlns:xlink="http://www.w3.org/1999/xlink" width="500" zoomAndPan="magnify" viewBox="0 0 375 374.999991" height="500" preserveAspectRatio="xMidYMid meet" version="1.0"><defs><clipPath id="7f575efd9f"><path d="M 131.25 138 L 243.914062 138 L 243.914062 236.71875 L 131.25 236.71875 Z M 131.25 138 " clip-rule="nonzero"/></clipPath><clipPath id="34ab271131"><path d="M 135.710938 154 C 126.589844 169.027344 133.015625 183.652344 141.089844 191.417969 L 188.308594 236.71875 L 234.53125 191.578125 C 242.042969 183.226562 244.921875 174.367188 243.324219 164.503906 C 241.113281 150.859375 229.871094 140.273438 215.980469 138.761719 C 207.460938 137.84375 199.230469 140.257812 192.808594 145.59375 C 191.078125 147.03125 189.535156 148.636719 188.1875 150.378906 C 186.589844 148.394531 184.714844 146.574219 182.597656 144.964844 C 175.210938 139.351562 165.808594 137.121094 156.777344 138.855469 C 148.226562 140.507812 140.546875 146.027344 135.710938 154 Z M 135.710938 154 " clip-rule="nonzero"/></clipPath></defs><g clip-path="url(#7f575efd9f)"><g clip-path="url(#34ab271131)"><path fill="#919191" d="M 131.25 138.28125 L 243.914062 138.28125 L 243.914062 236.71875 L 131.25 236.71875 Z M 131.25 138.28125 " fill-opacity="1" fill-rule="nonzero"/></g></g></svg>